{"title":"Frozen.2013.BRRip.720p.x264.AAC-PRiSTiNE [P2PDL]","uid":9680631,"size":672278949,"categoryP":"video","categoryS":"hd___movies","magnet":"?xt=urn:btih:aba88e3a1179885d6176bb538e5aaa51d288d6d8&amp;dn=Frozen.2013.BRRip.720p.x264.AAC-PRiSTiNE+%5BP2PDL%5D&amp;tr=udp%3A%2F%2Ftracker.openbittorrent.com%3A80&amp;tr=udp%3A%2F%2Fopen.demonii.com%3A1337&amp;tr=udp%3A%2F%2Ftracker.coppersurfer.tk%3A6969&amp;tr=udp%3A%2F%2Fexodus.desync.com%3A6969","seeders":3,"leechers":1,"uploader":"ValidusVyto","files":-1,"time":1393663813,"description":"Frozen.2013.BRRip.720p.x264.AAC-PRiSTiNE\n\n\nGenre: Animation | Adventure | Comedy  &lt;a href=&quot;\nhttp://www.imdb.com/title/tt2294629/&quot; rel=&quot;nofollow&quot; target=&quot;_NEW&quot;&gt;\nhttp://www.imdb.com/title/tt2294629/&lt;/a&gt;\n\n\nFormat                                   : MPEG-4\nFile size                                : 632 MiB\nDuration                                 : 1h 42mn\nOverall bit rate mode                    : Variable\nOverall bit rate                         : 865 Kbps\n\nVideo\nFormat                                   : AVC\nFormat profile                           : &lt;a class=&quot;__cf_email__&quot; href=&quot;/cdn-cgi/l/email-protection&quot; data-cfemail=&quot;afe7c6c8c7efe39b819e&quot;&gt;[email&amp;#160;protected]&lt;/a&gt;&lt;script cf-hash='f9e31' type=&quot;text/javascript&quot;&gt;\n/* &lt;![CDATA[ */!function(){try{var t=&quot;currentScript&quot;in document?document.currentScript:function(){for(var t=document.getElementsByTagName(&quot;script&quot;),e=t.length;e--;)if(t[e].getAttribute(&quot;cf-hash&quot;))return t[e]}();if(t&amp;&amp;t.previousSibling){var e,r,n,i,c=t.previousSibling,a=c.getAttribute(&quot;data-cfemail&quot;);if(a){for(e=&quot;&quot;,r=parseInt(a.substr(0,2),16),n=2;a.length-n;n+=2)i=parseInt(a.substr(n,2),16)^r,e+=String.fromCharCode(i);e=document.createTextNode(e),c.parentNode.replaceChild(e,c)}}}catch(u){}}();/* ]]&gt; */&lt;/script&gt;\nBit rate                                 : 780 Kbps\nWidth                                    : 1 280 pixels\nHeight                                   : 544 pixels\nDisplay aspect ratio                     : 2.25:1\nFrame rate mode                          : Variable\nFrame rate                               : 23.976 fps\nBit depth                                : 8 bits\nStream size                              : 570 MiB (90%)\nWriting library                          : x264 core 142 r2389 956c8d8\n\nAudio\nFormat                                   : AAC\nBit rate mode                            : Variable\nBit rate                                 : 80.0 Kbps\nChannel(s)                               : 2 channels\nChannel positions                        : Front: L R\nSampling rate                            : 48.0 KHz\nStream size                              : 58.5 MiB (9%)\nLanguage                                 : English\n\nSubtitle                                 : Yes (English)\n &lt;a href=&quot;\nhttp://someimage.com/jl06oQ6&quot; rel=&quot;nofollow&quot; target=&quot;_NEW&quot;&gt;\nhttp://someimage.com/jl06oQ6&lt;/a&gt; &lt;a href=&quot;\nhttp://someimage.com/pKVjaDK&quot; rel=&quot;nofollow&quot; target=&quot;_NEW&quot;&gt;\nhttp://someimage.com/pKVjaDK&lt;/a&gt; &lt;a href=&quot;\nhttp://someimage.com/NIwhOG9&quot; rel=&quot;nofollow&quot; target=&quot;_NEW&quot;&gt;\nhttp://someimage.com/NIwhOG9&lt;/a&gt; &lt;a href=&quot;\nhttp://someimage.com/sZZFpSv&quot; rel=&quot;nofollow&quot; target=&quot;_NEW&quot;&gt;\nhttp://someimage.com/sZZFpSv&lt;/a&gt; &lt;a href=&quot;\nhttp://someimage.com/w5spOsY&quot; rel=&quot;nofollow&quot; target=&quot;_NEW&quot;&gt;\nhttp://someimage.com/w5spOsY&lt;/a&gt; &lt;a href=&quot;\nhttp://someimage.com/gLcOIZt&quot; rel=&quot;nofollow&quot; target=&quot;_NEW&quot;&gt;\nhttp://someimage.com/gLcOIZt&lt;/a&gt;","torrent":{"xt":"urn:btih:aba88e3a1179885d6176bb538e5aaa51d288d6d8","amp;dn":"Frozen.2013.BRRip.720p.x264.AAC-PRiSTiNE+%5BP2PDL%5D","amp;tr":["udp%3A%2F%2Ftracker.openbittorrent.com%3A80","udp%3A%2F%2Fopen.demonii.com%3A1337","udp%3A%2F%2Ftracker.coppersurfer.tk%3A6969","udp%3A%2F%2Fexodus.desync.com%3A6969"],"infoHash":"aba88e3a1179885d6176bb538e5aaa51d288d6d8","infoHashBuffer":{"type":"Buffer","data":[171,168,142,58,17,121,136,93,97,118,187,83,142,90,170,81,210,136,214,216]},"announce":[],"urlList":[]}}